<svg id="visual" viewBox="0 0 900 600" width="900" height="600" xmlns="http://www.w3.org/2000/svg" xmlns:xlink="http://www.w3.org/1999/xlink" version="1.1"><path d="M0 424L21.5 421.3C43 418.7 86 413.3 128.8 414.5C171.7 415.7 214.3 423.3 257.2 425.3C300 427.3 343 423.7 385.8 419.5C428.7 415.3 471.3 410.7 514.2 411.3C557 412 600 418 642.8 415.7C685.7 413.3 728.3 402.7 771.2 403.2C814 403.7 857 415.3 878.5 421.2L900 427L900 601L878.5 601C857 601 814 601 771.2 601C728.3 601 685.7 601 642.8 601C600 601 557 601 514.2 601C471.3 601 428.7 601 385.8 601C343 601 300 601 257.2 601C214.3 601 171.7 601 128.8 601C86 601 43 601 21.5 601L0 601Z" fill="#fa7268"></path><path d="M0 436L21.5 438.2C43 440.3 86 444.7 128.8 444.8C171.7 445 214.3 441 257.2 443.3C300 445.7 343 454.3 385.8 461C428.7 467.7 471.3 472.3 514.2 472.7C557 473 600 469 642.8 468.2C685.7 467.3 728.3 469.7 771.2 472.8C814 476 857 480 878.5 482L900 484L900 601L878.5 601C857 601 814 601 771.2 601C728.3 601 685.7 601 642.8 601C600 601 557 601 514.2 601C471.3 601 428.7 601 385.8 601C343 601 300 601 257.2 601C214.3 601 171.7 601 128.8 601C86 601 43 601 21.5 601L0 601Z" fill="#ef5f67"></path><path d="M0 499L21.5 495.7C43 492.3 86 485.7 128.8 486.8C171.7 488 214.3 497 257.2 498.7C300 500.3 343 494.7 385.8 491C428.7 487.3 471.3 485.7 514.2 488C557 490.3 600 496.7 642.8 495.7C685.7 494.7 728.3 486.3 771.2 487.2C814 488 857 498 878.5 503L900 508L900 601L878.5 601C857 601 814 601 771.2 601C728.3 601 685.7 601 642.8 601C600 601 557 601 514.2 601C471.3 601 428.7 601 385.8 601C343 601 300 601 257.2 601C214.3 601 171.7 601 128.8 601C86 601 43 601 21.5 601L0 601Z" fill="#e34c67"></path><path d="M0 513L21.5 514.7C43 516.3 86 519.7 128.8 519.7C171.7 519.7 214.3 516.3 257.2 519.8C300 523.3 343 533.7 385.8 536C428.7 538.3 471.3 532.7 514.2 529.3C557 526 600 525 642.8 522.3C685.7 519.7 728.3 515.3 771.2 516.2C814 517 857 523 878.5 526L900 529L900 601L878.5 601C857 601 814 601 771.2 601C728.3 601 685.7 601 642.8 601C600 601 557 601 514.2 601C471.3 601 428.7 601 385.8 601C343 601 300 601 257.2 601C214.3 601 171.7 601 128.8 601C86 601 43 601 21.5 601L0 601Z" fill="#d53867"></path><path d="M0 574L21.5 573.2C43 572.3 86 570.7 128.8 571C171.7 571.3 214.3 573.7 257.2 573.3C300 573 343 570 385.8 567.7C428.7 565.3 471.3 563.7 514.2 562.8C557 562 600 562 642.8 559.8C685.7 557.7 728.3 553.3 771.2 553.8C814 554.3 857 559.7 878.5 562.3L900 565L900 601L878.5 601C857 601 814 601 771.2 601C728.3 601 685.7 601 642.8 601C600 601 557 601 514.2 601C471.3 601 428.7 601 385.8 601C343 601 300 601 257.2 601C214.3 601 171.7 601 128.8 601C86 601 43 601 21.5 601L0 601Z" fill="#c62368"></path></svg>
